<svg width="100" height="48" viewBox="0 0 100 48" fill="none" xmlns="http://www.w3.org/2000/svg">
<path d="M37.0124 36.2767C36.7605 36.4061 36.1153 36.5571 35.3021 36.5571C32.752 36.5571 31.6294 35.0041 31.6294 33.2269C31.6294 30.8759 33.3928 29.681 35.4214 29.681C36.1992 29.681 36.8357 29.8277 37.1229 29.9743L36.7649 31.3763C36.4733 31.2598 36.049 31.139 35.5009 31.139C34.4579 31.139 33.5475 31.743 33.5475 33.1018C33.5475 34.3182 34.2856 35.0645 35.5407 35.0645C35.9783 35.0645 36.4688 34.9869 36.7561 34.879L37.008 36.2724L37.0124 36.2767Z" fill="#0061AF"/>
<path d="M37.6042 29.612H39.434V32.2822H39.4561C39.6152 32.0837 39.8229 31.9328 40.0439 31.8249C40.2648 31.7171 40.5389 31.6567 40.7996 31.6567C41.9222 31.6567 42.5498 32.4375 42.5498 33.8135V36.6304H40.7201V34.0163C40.7201 33.4426 40.53 33.0975 40.0748 33.0975C39.7301 33.0975 39.5665 33.2959 39.4782 33.4857C39.4472 33.5634 39.4384 33.6928 39.4384 33.7704V36.6347H37.6087V29.6163H37.6042V29.612Z" fill="#0061AF"/>
<path d="M45.1931 30.4445C45.1931 30.9103 44.8263 31.2813 44.2562 31.2813C43.6861 31.2813 43.3369 30.906 43.3369 30.4445C43.3369 29.9484 43.7037 29.599 44.265 29.599C44.8263 29.599 45.1799 29.9527 45.1931 30.4445ZM43.3413 36.6346V31.7774H45.171V36.6346H43.3413Z" fill="#0061AF"/>
<path d="M45.9975 33.5082C45.9975 32.8568 45.9754 32.3047 45.9578 31.8474H47.54L47.6195 32.4686H47.6505C47.8317 32.2141 48.3178 31.7396 49.1443 31.7396C50.3066 31.7396 50.9475 32.5074 50.9475 33.8447V36.709H49.1178V34.0604C49.1178 33.4953 48.9277 33.1674 48.4813 33.1674C48.1234 33.1674 47.9643 33.4047 47.8847 33.5945C47.8449 33.6808 47.8361 33.8188 47.8361 33.9525V36.709H46.0064V33.5125H45.9975V33.5082Z" fill="#0061AF"/>
<path d="M56.3966 35.4702C56.3966 35.9534 56.4275 36.4106 56.4761 36.6565H54.8365L54.7481 36.2294H54.7083C54.3636 36.6177 53.8686 36.7643 53.3338 36.7643C52.3129 36.7643 51.6853 36.044 51.6853 35.233C51.6853 33.9302 52.8918 33.3479 54.5757 33.3479V33.3091C54.5757 33.1106 54.4254 32.8949 53.7581 32.8949C53.2322 32.8949 52.6841 33.0718 52.3527 33.253L52.0433 32.1357C52.3527 31.9675 53.0731 31.6914 54.1072 31.6914C55.8176 31.6914 56.401 32.6232 56.401 33.8353V35.4702H56.3966ZM54.6376 34.4263C53.8907 34.4263 53.4752 34.6247 53.4752 35.0561C53.4752 35.3581 53.6741 35.522 53.9923 35.522C54.2531 35.522 54.5271 35.3451 54.6199 35.0647C54.642 34.9957 54.642 34.9094 54.642 34.8189V34.4263H54.6376Z" fill="#0061AF"/>
<path d="M62.8319 32.6662C62.032 32.4074 61.6961 32.2478 61.6961 31.9027C61.6961 31.6568 61.8419 31.3591 62.5402 31.3591C63.0971 31.3591 63.6672 31.5576 63.9147 31.6525L64.2285 30.3584C64.0075 30.2764 63.3181 30.0521 62.4341 30.0521C60.7856 30.0521 59.6763 30.8933 59.6763 32.1399C59.6631 32.9682 60.3083 33.6109 61.5414 33.9991C62.2883 34.2191 62.5402 34.3529 62.5402 34.7195C62.5402 35.2501 61.8994 35.2501 61.6254 35.2501C61.0641 35.2501 60.3304 35.0431 59.8752 34.836L59.5393 36.1948C60.0918 36.4407 60.8784 36.5874 61.6519 36.5874C63.4727 36.5874 64.5644 35.8239 64.5644 34.547C64.5467 33.6195 64.0119 33.0372 62.8319 32.6619V32.6662Z" fill="#0061AF"/>
<path d="M65.0015 29.6419H66.8312V32.3121H66.8533C67.0124 32.1137 67.2201 31.9627 67.4411 31.8549C67.6621 31.747 67.9361 31.6866 68.1968 31.6866C69.3194 31.6866 69.947 32.4674 69.947 33.8435V36.6604H68.1173V34.0462C68.1173 33.4725 67.9272 33.1274 67.472 33.1274C67.1273 33.1274 66.9638 33.3259 66.8754 33.5157C66.8444 33.5933 66.8356 33.7227 66.8356 33.8004V36.6647H65.0015V29.6462V29.6419Z" fill="#0061AF"/>
<path d="M75.6794 34.1722C75.6794 35.9408 74.3844 36.7605 72.9879 36.7605C71.5029 36.7605 70.3494 35.8416 70.3494 34.2628C70.3494 32.684 71.3924 31.6875 73.0895 31.6875C74.6496 31.6832 75.6794 32.7142 75.6794 34.1722ZM72.2277 34.2197C72.2277 34.9487 72.4708 35.5052 73.0365 35.5052C73.5315 35.5052 73.7922 35.0005 73.7922 34.2197C73.7922 33.5467 73.5712 32.9342 73.0365 32.9342C72.431 32.9385 72.2277 33.5812 72.2277 34.2197Z" fill="#0061AF"/>
<path d="M76.1919 33.5082C76.1919 32.8568 76.1698 32.3047 76.1521 31.8474H77.7166L77.7962 32.4686H77.8183C78.1939 31.9855 78.7464 31.7396 79.4359 31.7396C80.4656 31.7396 81.4777 32.6412 81.4777 34.22C81.4777 35.9972 80.2933 36.8168 79.2149 36.8168C78.6492 36.8168 78.2116 36.6012 78.0304 36.351H78.0083V38.6631H76.1875V33.5039L76.1919 33.5082ZM78.0172 34.5823C78.0172 34.6902 78.026 34.7894 78.0481 34.8757C78.1188 35.1949 78.3928 35.458 78.7552 35.458C79.3033 35.458 79.6347 35.0008 79.6347 34.3019C79.6347 33.6031 79.3519 33.1243 78.7773 33.1243C78.4105 33.1243 78.1011 33.4047 78.0393 33.7455C78.0172 33.8145 78.0172 33.8921 78.0172 33.9698V34.578V34.5823Z" fill="#0061AF"/>
<path d="M26.9932 9.54427L23.9569 21.6486L20.9162 9.54427H14.72L13.5134 27.5541H17.4822L18.428 13.4309L21.9637 27.2651H25.9457L29.4814 13.4309L30.4272 27.5541H34.396L33.185 9.54427H26.9932Z" fill="#0061AF"/>
<path d="M38.8112 21.6623C39.0897 25.0572 44.5036 24.4706 46.8504 23.7459L47.4338 26.6835C41.9535 28.7325 34.6436 27.3953 34.6436 20.4372C34.6436 11.1584 48.2205 10.1533 48.2205 19.9541C48.2205 20.6917 48.1365 21.3474 48.0791 21.6623H38.8156H38.8112ZM44.097 18.6945C44.097 14.8596 38.8024 14.8078 38.8377 18.6945H44.097Z" fill="#E60033"/>
<path d="M53.1124 18.6949C53.0771 14.8082 58.3717 14.86 58.3717 18.6949H53.1124ZM48.9182 20.4333C48.9182 27.3914 56.2327 28.7243 61.7085 26.6796L61.1251 23.742C58.7783 24.4667 53.3688 25.0533 53.0859 21.6584H62.3494C62.4068 21.3478 62.4908 20.6878 62.4908 19.9502C62.4908 10.1494 48.9138 11.1545 48.9138 20.4333H48.9182Z" fill="#0061AF"/>
<path d="M81.3674 13.431H78.9675V16.3686H81.3497L82.185 14.889L81.3674 13.431Z" fill="#0061AF"/>
<path d="M78.2692 21.5455V9.54037H74.2164V13.4313H72.4397L72.1304 16.3733H74.2208V22.2055C74.2208 25.2682 75.0119 27.5545 78.4813 27.5545C79.7365 27.5545 80.7751 27.2439 81.354 27.0153V23.7368C79.2813 24.1121 78.2692 24.2459 78.2692 21.5455Z" fill="#0061AF"/>
<path d="M67.0478 17.1677C67.0478 15.4034 70.4111 15.9728 71.432 16.374L71.7502 13.4363C68.3427 12.4054 63.0569 13.1732 63.0569 17.5559C62.9862 21.874 69.5051 21.2873 69.5051 23.345C69.5051 25.5148 64.4005 24.4061 63.2867 23.7461L62.7078 26.6838C66.4998 28.3187 73.7037 27.9563 73.5136 23.043C73.4429 18.2807 67.0478 19.1218 67.0478 17.172V17.1677Z" fill="#0061AF"/>
<path d="M83.4265 9.33334L86.4362 14.7514L83.4265 20.191H80.4211L83.4309 14.7514L80.4211 9.33334H83.4265Z" fill="#E60033"/>
</svg>
